<mxfile host="65bd71144e">
    <diagram id="JNdCl-VXCiV7JA7d3v7s" name="L1">
        <mxGraphModel dx="2019" dy="647" grid="0" gridSize="10" guides="1" tooltips="1" connect="1" arrows="1" fold="1" page="0" pageScale="1" pageWidth="850" pageHeight="1100" math="0" shadow="0">
            <root>
                <mxCell id="0"/>
                <mxCell id="1" parent="0"/>
                <mxCell id="2" value="" style="rounded=1;arcSize=10;dashed=1;fillColor=none;gradientColor=none;dashPattern=8 3 1 3;strokeWidth=2;fontColor=#007FFF;" parent="1" vertex="1">
                    <mxGeometry x="-369" y="122" width="651" height="422" as="geometry"/>
                </mxCell>
                <mxCell id="8" value="cloudzero-insights-controller" style="rounded=0;whiteSpace=wrap;html=1;verticalAlign=bottom;fontStyle=1" parent="1" vertex="1">
                    <mxGeometry x="-176" y="342" width="322" height="165" as="geometry"/>
                </mxCell>
                <mxCell id="11" style="edgeStyle=orthogonalEdgeStyle;html=1;rounded=0;" parent="1" source="12" target="14" edge="1">
                    <mxGeometry relative="1" as="geometry"/>
                </mxCell>
                <mxCell id="12" value="&lt;span style=&quot;font-family: Helvetica; font-size: 12px; font-style: normal; font-variant-ligatures: normal; font-variant-caps: normal; letter-spacing: normal; orphans: 2; text-align: center; text-indent: 0px; text-transform: none; widows: 2; word-spacing: 0px; -webkit-text-stroke-width: 0px; text-decoration-thickness: initial; text-decoration-style: initial; text-decoration-color: initial; float: none; display: inline !important;&quot;&gt;&lt;b&gt;configMap&lt;/b&gt;&lt;br&gt;config.yml&lt;/span&gt;" style="whiteSpace=wrap;html=1;shape=mxgraph.basic.document;labelBackgroundColor=none;" parent="1" vertex="1">
                    <mxGeometry x="-308" y="372" width="100" height="100" as="geometry"/>
                </mxCell>
                <mxCell id="14" value="config.yml" style="verticalLabelPosition=bottom;html=1;verticalAlign=top;strokeWidth=1;align=center;outlineConnect=0;dashed=0;outlineConnect=0;shape=mxgraph.aws3d.file;aspect=fixed;strokeColor=#6c8ebf;fillColor=#dae8fc;" parent="1" vertex="1">
                    <mxGeometry x="-144" y="386.5" width="30.97" height="71" as="geometry"/>
                </mxCell>
                <mxCell id="37" style="edgeStyle=none;html=1;" parent="1" source="23" target="14" edge="1">
                    <mxGeometry relative="1" as="geometry"/>
                </mxCell>
                <mxCell id="23" value="&lt;span style=&quot;font-weight: 700;&quot;&gt;cloudzero-insight-controller&lt;/span&gt;" style="rounded=0;whiteSpace=wrap;html=1;fillColor=#76608a;fontColor=#ffffff;strokeColor=#432D57;" parent="1" vertex="1">
                    <mxGeometry x="-69" y="407.5" width="178" height="29" as="geometry"/>
                </mxCell>
                <mxCell id="27" value="CloudZero API" style="sketch=0;outlineConnect=0;html=1;whiteSpace=wrap;fontSize=12;fontStyle=0;shape=mxgraph.aws4.group;grIcon=mxgraph.aws4.group_vpc;verticalAlign=top;align=left;spacingLeft=30;dashed=0;" parent="1" vertex="1">
                    <mxGeometry x="443" y="357" width="222" height="130" as="geometry"/>
                </mxCell>
                <mxCell id="28" value="" style="sketch=0;aspect=fixed;html=1;points=[];align=center;image;fontSize=12;image=img/lib/mscae/Kubernetes.svg;fontColor=#007FFF;" parent="1" vertex="1">
                    <mxGeometry x="-281" y="134" width="50" height="48" as="geometry"/>
                </mxCell>
                <mxCell id="29" value="status API" style="rounded=0;whiteSpace=wrap;html=1;" parent="1" vertex="1">
                    <mxGeometry x="481" y="393.25" width="153" height="57.5" as="geometry"/>
                </mxCell>
                <mxCell id="30" value="CloudZero Insights Controller Deployment" style="text;html=1;align=center;verticalAlign=middle;resizable=0;points=[];autosize=1;strokeColor=none;fillColor=none;fontSize=19;fontStyle=1" parent="1" vertex="1">
                    <mxGeometry x="-220" y="140.5" width="401" height="35" as="geometry"/>
                </mxCell>
                <mxCell id="22" style="edgeStyle=orthogonalEdgeStyle;rounded=0;html=1;fontColor=#007FFF;entryX=0;entryY=0.5;entryDx=0;entryDy=0;" parent="1" source="23" target="29" edge="1">
                    <mxGeometry relative="1" as="geometry"/>
                </mxCell>
                <mxCell id="LgStOj9c6eo0qOgeac3h-39" value="" style="group" parent="1" vertex="1" connectable="0">
                    <mxGeometry x="-40" y="238" width="120" height="37" as="geometry"/>
                </mxCell>
                <mxCell id="LgStOj9c6eo0qOgeac3h-37" value="api-server" style="rounded=0;whiteSpace=wrap;html=1;" parent="LgStOj9c6eo0qOgeac3h-39" vertex="1">
                    <mxGeometry width="120" height="37" as="geometry"/>
                </mxCell>
                <mxCell id="LgStOj9c6eo0qOgeac3h-38" value="" style="sketch=0;html=1;dashed=0;whitespace=wrap;fillColor=#2875E2;strokeColor=#ffffff;points=[[0.005,0.63,0],[0.1,0.2,0],[0.9,0.2,0],[0.5,0,0],[0.995,0.63,0],[0.72,0.99,0],[0.5,1,0],[0.28,0.99,0]];verticalLabelPosition=bottom;align=center;verticalAlign=top;shape=mxgraph.kubernetes.icon;prIcon=master" parent="LgStOj9c6eo0qOgeac3h-39" vertex="1">
                    <mxGeometry y="3" width="28" height="31" as="geometry"/>
                </mxCell>
                <mxCell id="LgStOj9c6eo0qOgeac3h-40" style="edgeStyle=none;html=1;entryX=0.5;entryY=0;entryDx=0;entryDy=0;" parent="1" source="LgStOj9c6eo0qOgeac3h-37" target="23" edge="1">
                    <mxGeometry relative="1" as="geometry"/>
                </mxCell>
                <mxCell id="LgStOj9c6eo0qOgeac3h-41" value="&lt;meta charset=&quot;utf-8&quot;&gt;&lt;div style=&quot;color: rgb(255, 255, 255); background-color: rgb(0, 0, 0); font-family: Menlo, Monaco, &amp;quot;Courier New&amp;quot;, monospace; font-weight: normal; font-size: 12px; line-height: 18px;&quot;&gt;&lt;div&gt;&lt;span style=&quot;color: #b5cea8;&quot;&gt;8443&lt;/span&gt;&lt;/div&gt;&lt;/div&gt;" style="text;whiteSpace=wrap;html=1;" parent="1" vertex="1">
                    <mxGeometry x="23.002545776367242" y="379.000048828125" width="57" height="40" as="geometry"/>
                </mxCell>
            </root>
        </mxGraphModel>
    </diagram>
    <diagram name="L2" id="EOyA1T_z4lGDsISv_l8y">
        <mxGraphModel dx="1652" dy="341" grid="0" gridSize="10" guides="1" tooltips="1" connect="1" arrows="1" fold="1" page="0" pageScale="1" pageWidth="850" pageHeight="1100" math="0" shadow="0">
            <root>
                <mxCell id="aPLFm_Hk14Rjcr5PQsiA-0"/>
                <mxCell id="aPLFm_Hk14Rjcr5PQsiA-1" parent="aPLFm_Hk14Rjcr5PQsiA-0"/>
                <mxCell id="aPLFm_Hk14Rjcr5PQsiA-8" value="&lt;span style=&quot;font-weight: 700;&quot;&gt;cloudzero-insight-controller&lt;/span&gt;" style="rounded=0;whiteSpace=wrap;html=1;fillColor=#76608a;fontColor=#ffffff;strokeColor=#432D57;" parent="aPLFm_Hk14Rjcr5PQsiA-1" vertex="1">
                    <mxGeometry x="-264" y="313" width="373" height="29" as="geometry"/>
                </mxCell>
                <mxCell id="aPLFm_Hk14Rjcr5PQsiA-9" value="CloudZero API" style="sketch=0;outlineConnect=0;html=1;whiteSpace=wrap;fontSize=12;fontStyle=0;shape=mxgraph.aws4.group;grIcon=mxgraph.aws4.group_vpc;verticalAlign=top;align=left;spacingLeft=30;dashed=0;" parent="aPLFm_Hk14Rjcr5PQsiA-1" vertex="1">
                    <mxGeometry x="215" y="437" width="159" height="65" as="geometry"/>
                </mxCell>
                <mxCell id="rcxrxIE3Rt5eyCuYpOGt-0" value="" style="rounded=0;whiteSpace=wrap;html=1;" parent="aPLFm_Hk14Rjcr5PQsiA-1" vertex="1">
                    <mxGeometry x="-264" y="342" width="373" height="284" as="geometry"/>
                </mxCell>
                <mxCell id="rcxrxIE3Rt5eyCuYpOGt-1" value="SQLite" style="shape=cylinder3;whiteSpace=wrap;html=1;boundedLbl=1;backgroundOutline=1;size=15;" parent="aPLFm_Hk14Rjcr5PQsiA-1" vertex="1">
                    <mxGeometry x="-185" y="530" width="226" height="82" as="geometry"/>
                </mxCell>
                <mxCell id="rcxrxIE3Rt5eyCuYpOGt-7" style="edgeStyle=none;html=1;entryX=0.145;entryY=0;entryDx=0;entryDy=4.35;entryPerimeter=0;" parent="aPLFm_Hk14Rjcr5PQsiA-1" source="rcxrxIE3Rt5eyCuYpOGt-3" target="rcxrxIE3Rt5eyCuYpOGt-1" edge="1">
                    <mxGeometry relative="1" as="geometry"/>
                </mxCell>
                <mxCell id="rcxrxIE3Rt5eyCuYpOGt-3" value="API" style="rounded=0;whiteSpace=wrap;html=1;" parent="aPLFm_Hk14Rjcr5PQsiA-1" vertex="1">
                    <mxGeometry x="-213" y="453" width="120" height="44" as="geometry"/>
                </mxCell>
                <mxCell id="rcxrxIE3Rt5eyCuYpOGt-8" style="edgeStyle=none;html=1;entryX=0.855;entryY=0;entryDx=0;entryDy=4.35;entryPerimeter=0;" parent="aPLFm_Hk14Rjcr5PQsiA-1" source="rcxrxIE3Rt5eyCuYpOGt-4" target="rcxrxIE3Rt5eyCuYpOGt-1" edge="1">
                    <mxGeometry relative="1" as="geometry"/>
                </mxCell>
                <mxCell id="rcxrxIE3Rt5eyCuYpOGt-4" value="Flusher" style="rounded=0;whiteSpace=wrap;html=1;" parent="aPLFm_Hk14Rjcr5PQsiA-1" vertex="1">
                    <mxGeometry x="-52" y="452.75" width="120" height="44" as="geometry"/>
                </mxCell>
                <mxCell id="rcxrxIE3Rt5eyCuYpOGt-6" style="edgeStyle=none;html=1;" parent="aPLFm_Hk14Rjcr5PQsiA-1" source="rcxrxIE3Rt5eyCuYpOGt-5" target="rcxrxIE3Rt5eyCuYpOGt-3" edge="1">
                    <mxGeometry relative="1" as="geometry"/>
                </mxCell>
                <mxCell id="rcxrxIE3Rt5eyCuYpOGt-5" value="K8s API" style="sketch=0;html=1;dashed=0;whitespace=wrap;fillColor=#2875E2;strokeColor=#ffffff;points=[[0.005,0.63,0],[0.1,0.2,0],[0.9,0.2,0],[0.5,0,0],[0.995,0.63,0],[0.72,0.99,0],[0.5,1,0],[0.28,0.99,0]];verticalLabelPosition=bottom;align=center;verticalAlign=top;shape=mxgraph.kubernetes.icon;prIcon=master" parent="aPLFm_Hk14Rjcr5PQsiA-1" vertex="1">
                    <mxGeometry x="-486" y="450.75" width="50" height="48" as="geometry"/>
                </mxCell>
                <mxCell id="aPLFm_Hk14Rjcr5PQsiA-18" value="&lt;meta charset=&quot;utf-8&quot;&gt;&lt;div style=&quot;color: rgb(255, 255, 255); background-color: rgb(0, 0, 0); font-family: Menlo, Monaco, &amp;quot;Courier New&amp;quot;, monospace; font-weight: normal; font-size: 12px; line-height: 18px;&quot;&gt;&lt;div&gt;&lt;span style=&quot;color: #b5cea8;&quot;&gt;8443&lt;/span&gt;&lt;/div&gt;&lt;/div&gt;" style="text;whiteSpace=wrap;html=1;" parent="aPLFm_Hk14Rjcr5PQsiA-1" vertex="1">
                    <mxGeometry x="-259.99745422363276" y="471.000048828125" width="57" height="40" as="geometry"/>
                </mxCell>
                <mxCell id="LX1SU4u2dOtB_09dFPmn-1" style="edgeStyle=none;html=1;" parent="aPLFm_Hk14Rjcr5PQsiA-1" source="LX1SU4u2dOtB_09dFPmn-0" target="rcxrxIE3Rt5eyCuYpOGt-3" edge="1">
                    <mxGeometry relative="1" as="geometry"/>
                </mxCell>
                <mxCell id="LX1SU4u2dOtB_09dFPmn-2" style="edgeStyle=orthogonalEdgeStyle;html=1;rounded=0;" parent="aPLFm_Hk14Rjcr5PQsiA-1" source="LX1SU4u2dOtB_09dFPmn-0" target="aPLFm_Hk14Rjcr5PQsiA-9" edge="1">
                    <mxGeometry relative="1" as="geometry">
                        <mxPoint x="329.5" y="446.25" as="targetPoint"/>
                        <Array as="points">
                            <mxPoint x="317" y="393"/>
                        </Array>
                    </mxGeometry>
                </mxCell>
                <mxCell id="LX1SU4u2dOtB_09dFPmn-0" value="Rsync (config)" style="rounded=0;whiteSpace=wrap;html=1;" parent="aPLFm_Hk14Rjcr5PQsiA-1" vertex="1">
                    <mxGeometry x="-213" y="371" width="120" height="44" as="geometry"/>
                </mxCell>
                <mxCell id="aPLFm_Hk14Rjcr5PQsiA-13" style="edgeStyle=orthogonalEdgeStyle;rounded=0;html=1;fontColor=#007FFF;" parent="aPLFm_Hk14Rjcr5PQsiA-1" source="rcxrxIE3Rt5eyCuYpOGt-4" edge="1">
                    <mxGeometry relative="1" as="geometry">
                        <mxPoint x="213" y="475" as="targetPoint"/>
                    </mxGeometry>
                </mxCell>
            </root>
        </mxGraphModel>
    </diagram>
    <diagram id="THHgEZ607lltaCjjYL1q" name="L3">
        <mxGraphModel dx="2705" dy="761" grid="0" gridSize="10" guides="1" tooltips="1" connect="1" arrows="1" fold="1" page="0" pageScale="1" pageWidth="850" pageHeight="1100" math="0" shadow="0">
            <root>
                <mxCell id="0"/>
                <mxCell id="1" parent="0"/>
                <mxCell id="lxQkOtMBkfPTH1jWham--3" style="edgeStyle=orthogonalEdgeStyle;rounded=0;html=1;entryX=0.5;entryY=0;entryDx=0;entryDy=0;" parent="1" source="lxQkOtMBkfPTH1jWham--19" target="lxQkOtMBkfPTH1jWham--5" edge="1">
                    <mxGeometry relative="1" as="geometry">
                        <mxPoint x="365" y="240" as="sourcePoint"/>
                        <mxPoint x="365" y="320" as="targetPoint"/>
                    </mxGeometry>
                </mxCell>
                <mxCell id="lxQkOtMBkfPTH1jWham--29" style="edgeStyle=none;rounded=0;html=1;dashed=1;" parent="1" source="lxQkOtMBkfPTH1jWham--30" target="lxQkOtMBkfPTH1jWham--10" edge="1">
                    <mxGeometry relative="1" as="geometry"/>
                </mxCell>
                <mxCell id="lxQkOtMBkfPTH1jWham--35" style="edgeStyle=none;rounded=0;html=1;dashed=1;" parent="1" source="lxQkOtMBkfPTH1jWham--5" target="lxQkOtMBkfPTH1jWham--30" edge="1">
                    <mxGeometry relative="1" as="geometry"/>
                </mxCell>
                <mxCell id="lxQkOtMBkfPTH1jWham--96" style="edgeStyle=orthogonalEdgeStyle;rounded=0;html=1;endArrow=block;endFill=1;" parent="1" source="lxQkOtMBkfPTH1jWham--5" target="lxQkOtMBkfPTH1jWham--95" edge="1">
                    <mxGeometry relative="1" as="geometry"/>
                </mxCell>
                <mxCell id="lxQkOtMBkfPTH1jWham--5" value="Server" style="swimlane;fontStyle=0;childLayout=stackLayout;horizontal=1;startSize=30;horizontalStack=0;resizeParent=1;resizeParentMax=0;resizeLast=0;collapsible=1;marginBottom=0;whiteSpace=wrap;html=1;" parent="1" vertex="1">
                    <mxGeometry x="60" y="295" width="140" height="120" as="geometry"/>
                </mxCell>
                <mxCell id="lxQkOtMBkfPTH1jWham--6" value="NewServer(data)" style="text;strokeColor=none;fillColor=none;align=left;verticalAlign=middle;spacingLeft=4;spacingRight=4;overflow=hidden;points=[[0,0.5],[1,0.5]];portConstraint=eastwest;rotatable=0;whiteSpace=wrap;html=1;" parent="lxQkOtMBkfPTH1jWham--5" vertex="1">
                    <mxGeometry y="30" width="140" height="30" as="geometry"/>
                </mxCell>
                <mxCell id="lxQkOtMBkfPTH1jWham--8" value="&lt;meta charset=&quot;utf-8&quot;&gt;&lt;span style=&quot;color: rgb(0, 0, 0); font-family: Helvetica; font-size: 12px; font-style: normal; font-variant-ligatures: normal; font-variant-caps: normal; font-weight: 400; letter-spacing: normal; orphans: 2; text-align: left; text-indent: 0px; text-transform: none; widows: 2; word-spacing: 0px; -webkit-text-stroke-width: 0px; background-color: rgb(251, 251, 251); text-decoration-thickness: initial; text-decoration-style: initial; text-decoration-color: initial; float: none; display: inline !important;&quot;&gt;Register(route, handler)&lt;/span&gt;" style="text;strokeColor=none;fillColor=none;align=left;verticalAlign=middle;spacingLeft=4;spacingRight=4;overflow=hidden;points=[[0,0.5],[1,0.5]];portConstraint=eastwest;rotatable=0;whiteSpace=wrap;html=1;" parent="lxQkOtMBkfPTH1jWham--5" vertex="1">
                    <mxGeometry y="60" width="140" height="30" as="geometry"/>
                </mxCell>
                <mxCell id="lxQkOtMBkfPTH1jWham--9" value="&lt;span style=&quot;color: rgb(0, 0, 0); font-family: Helvetica; font-size: 12px; font-style: normal; font-variant-ligatures: normal; font-variant-caps: normal; font-weight: 400; letter-spacing: normal; orphans: 2; text-align: left; text-indent: 0px; text-transform: none; widows: 2; word-spacing: 0px; -webkit-text-stroke-width: 0px; background-color: rgb(251, 251, 251); text-decoration-thickness: initial; text-decoration-style: initial; text-decoration-color: initial; float: none; display: inline !important;&quot;&gt;Run()&lt;/span&gt;" style="text;strokeColor=none;fillColor=none;align=left;verticalAlign=middle;spacingLeft=4;spacingRight=4;overflow=hidden;points=[[0,0.5],[1,0.5]];portConstraint=eastwest;rotatable=0;whiteSpace=wrap;html=1;" parent="lxQkOtMBkfPTH1jWham--5" vertex="1">
                    <mxGeometry y="90" width="140" height="30" as="geometry"/>
                </mxCell>
                <mxCell id="lxQkOtMBkfPTH1jWham--10" value="Data" style="swimlane;fontStyle=0;childLayout=stackLayout;horizontal=1;startSize=30;horizontalStack=0;resizeParent=1;resizeParentMax=0;resizeLast=0;collapsible=1;marginBottom=0;whiteSpace=wrap;html=1;" parent="1" vertex="1">
                    <mxGeometry x="570" y="280" width="140" height="150" as="geometry"/>
                </mxCell>
                <mxCell id="lxQkOtMBkfPTH1jWham--11" value="NewServer" style="text;strokeColor=none;fillColor=none;align=left;verticalAlign=middle;spacingLeft=4;spacingRight=4;overflow=hidden;points=[[0,0.5],[1,0.5]];portConstraint=eastwest;rotatable=0;whiteSpace=wrap;html=1;" parent="lxQkOtMBkfPTH1jWham--10" vertex="1">
                    <mxGeometry y="30" width="140" height="30" as="geometry"/>
                </mxCell>
                <mxCell id="lxQkOtMBkfPTH1jWham--12" value="Create(record)" style="text;strokeColor=none;fillColor=none;align=left;verticalAlign=middle;spacingLeft=4;spacingRight=4;overflow=hidden;points=[[0,0.5],[1,0.5]];portConstraint=eastwest;rotatable=0;whiteSpace=wrap;html=1;" parent="lxQkOtMBkfPTH1jWham--10" vertex="1">
                    <mxGeometry y="60" width="140" height="30" as="geometry"/>
                </mxCell>
                <mxCell id="lxQkOtMBkfPTH1jWham--13" value="&lt;span style=&quot;color: rgb(0, 0, 0); font-family: Helvetica; font-size: 12px; font-style: normal; font-variant-ligatures: normal; font-variant-caps: normal; font-weight: 400; letter-spacing: normal; orphans: 2; text-align: left; text-indent: 0px; text-transform: none; widows: 2; word-spacing: 0px; -webkit-text-stroke-width: 0px; background-color: rgb(251, 251, 251); text-decoration-thickness: initial; text-decoration-style: initial; text-decoration-color: initial; float: none; display: inline !important;&quot;&gt;Retrive(filter)&lt;/span&gt;" style="text;strokeColor=none;fillColor=none;align=left;verticalAlign=middle;spacingLeft=4;spacingRight=4;overflow=hidden;points=[[0,0.5],[1,0.5]];portConstraint=eastwest;rotatable=0;whiteSpace=wrap;html=1;" parent="lxQkOtMBkfPTH1jWham--10" vertex="1">
                    <mxGeometry y="90" width="140" height="30" as="geometry"/>
                </mxCell>
                <mxCell id="lxQkOtMBkfPTH1jWham--14" value="&lt;span style=&quot;color: rgb(0, 0, 0); font-family: Helvetica; font-size: 12px; font-style: normal; font-variant-ligatures: normal; font-variant-caps: normal; font-weight: 400; letter-spacing: normal; orphans: 2; text-align: left; text-indent: 0px; text-transform: none; widows: 2; word-spacing: 0px; -webkit-text-stroke-width: 0px; background-color: rgb(251, 251, 251); text-decoration-thickness: initial; text-decoration-style: initial; text-decoration-color: initial; float: none; display: inline !important;&quot;&gt;Delete(record)&lt;/span&gt;" style="text;strokeColor=none;fillColor=none;align=left;verticalAlign=middle;spacingLeft=4;spacingRight=4;overflow=hidden;points=[[0,0.5],[1,0.5]];portConstraint=eastwest;rotatable=0;whiteSpace=wrap;html=1;" parent="lxQkOtMBkfPTH1jWham--10" vertex="1">
                    <mxGeometry y="120" width="140" height="30" as="geometry"/>
                </mxCell>
                <mxCell id="lxQkOtMBkfPTH1jWham--28" style="edgeStyle=none;rounded=0;html=1;dashed=1;" parent="1" source="lxQkOtMBkfPTH1jWham--15" target="lxQkOtMBkfPTH1jWham--10" edge="1">
                    <mxGeometry relative="1" as="geometry"/>
                </mxCell>
                <mxCell id="lxQkOtMBkfPTH1jWham--15" value="Flusher" style="swimlane;fontStyle=0;childLayout=stackLayout;horizontal=1;startSize=30;horizontalStack=0;resizeParent=1;resizeParentMax=0;resizeLast=0;collapsible=1;marginBottom=0;whiteSpace=wrap;html=1;" parent="1" vertex="1">
                    <mxGeometry x="570" y="125" width="140" height="90" as="geometry"/>
                </mxCell>
                <mxCell id="lxQkOtMBkfPTH1jWham--16" value="NewFlusher(data)" style="text;strokeColor=none;fillColor=none;align=left;verticalAlign=middle;spacingLeft=4;spacingRight=4;overflow=hidden;points=[[0,0.5],[1,0.5]];portConstraint=eastwest;rotatable=0;whiteSpace=wrap;html=1;" parent="lxQkOtMBkfPTH1jWham--15" vertex="1">
                    <mxGeometry y="30" width="140" height="30" as="geometry"/>
                </mxCell>
                <mxCell id="lxQkOtMBkfPTH1jWham--18" value="&lt;span style=&quot;color: rgb(0, 0, 0); font-family: Helvetica; font-size: 12px; font-style: normal; font-variant-ligatures: normal; font-variant-caps: normal; font-weight: 400; letter-spacing: normal; orphans: 2; text-align: left; text-indent: 0px; text-transform: none; widows: 2; word-spacing: 0px; -webkit-text-stroke-width: 0px; background-color: rgb(251, 251, 251); text-decoration-thickness: initial; text-decoration-style: initial; text-decoration-color: initial; float: none; display: inline !important;&quot;&gt;Run()&lt;/span&gt;" style="text;strokeColor=none;fillColor=none;align=left;verticalAlign=middle;spacingLeft=4;spacingRight=4;overflow=hidden;points=[[0,0.5],[1,0.5]];portConstraint=eastwest;rotatable=0;whiteSpace=wrap;html=1;" parent="lxQkOtMBkfPTH1jWham--15" vertex="1">
                    <mxGeometry y="60" width="140" height="30" as="geometry"/>
                </mxCell>
                <mxCell id="lxQkOtMBkfPTH1jWham--25" style="edgeStyle=orthogonalEdgeStyle;rounded=0;html=1;" parent="1" source="lxQkOtMBkfPTH1jWham--19" target="lxQkOtMBkfPTH1jWham--23" edge="1">
                    <mxGeometry relative="1" as="geometry"/>
                </mxCell>
                <mxCell id="lxQkOtMBkfPTH1jWham--26" style="edgeStyle=orthogonalEdgeStyle;rounded=0;html=1;" parent="1" source="lxQkOtMBkfPTH1jWham--19" target="lxQkOtMBkfPTH1jWham--15" edge="1">
                    <mxGeometry relative="1" as="geometry"/>
                </mxCell>
                <mxCell id="lxQkOtMBkfPTH1jWham--27" style="rounded=0;html=1;" parent="1" source="lxQkOtMBkfPTH1jWham--19" target="lxQkOtMBkfPTH1jWham--10" edge="1">
                    <mxGeometry relative="1" as="geometry"/>
                </mxCell>
                <mxCell id="lxQkOtMBkfPTH1jWham--98" style="rounded=0;html=1;endArrow=block;endFill=1;" parent="1" source="lxQkOtMBkfPTH1jWham--19" target="lxQkOtMBkfPTH1jWham--97" edge="1">
                    <mxGeometry relative="1" as="geometry"/>
                </mxCell>
                <mxCell id="lxQkOtMBkfPTH1jWham--19" value="Controller" style="swimlane;fontStyle=0;childLayout=stackLayout;horizontal=1;startSize=30;horizontalStack=0;resizeParent=1;resizeParentMax=0;resizeLast=0;collapsible=1;marginBottom=0;whiteSpace=wrap;html=1;" parent="1" vertex="1">
                    <mxGeometry x="295" y="140" width="140" height="60" as="geometry"/>
                </mxCell>
                <mxCell id="lxQkOtMBkfPTH1jWham--21" value="&lt;span style=&quot;color: rgb(0, 0, 0); font-family: Helvetica; font-size: 12px; font-style: normal; font-variant-ligatures: normal; font-variant-caps: normal; font-weight: 400; letter-spacing: normal; orphans: 2; text-align: left; text-indent: 0px; text-transform: none; widows: 2; word-spacing: 0px; -webkit-text-stroke-width: 0px; background-color: rgb(251, 251, 251); text-decoration-thickness: initial; text-decoration-style: initial; text-decoration-color: initial; float: none; display: inline !important;&quot;&gt;Start&lt;/span&gt;" style="text;strokeColor=none;fillColor=none;align=left;verticalAlign=middle;spacingLeft=4;spacingRight=4;overflow=hidden;points=[[0,0.5],[1,0.5]];portConstraint=eastwest;rotatable=0;whiteSpace=wrap;html=1;" parent="lxQkOtMBkfPTH1jWham--19" vertex="1">
                    <mxGeometry y="30" width="140" height="30" as="geometry"/>
                </mxCell>
                <mxCell id="lxQkOtMBkfPTH1jWham--23" value="Config" style="swimlane;fontStyle=0;childLayout=stackLayout;horizontal=1;startSize=30;horizontalStack=0;resizeParent=1;resizeParentMax=0;resizeLast=0;collapsible=1;marginBottom=0;whiteSpace=wrap;html=1;" parent="1" vertex="1">
                    <mxGeometry x="295" y="10" width="140" height="60" as="geometry"/>
                </mxCell>
                <mxCell id="lxQkOtMBkfPTH1jWham--24" value="&lt;span style=&quot;color: rgb(0, 0, 0); font-family: Helvetica; font-size: 12px; font-style: normal; font-variant-ligatures: normal; font-variant-caps: normal; font-weight: 400; letter-spacing: normal; orphans: 2; text-align: left; text-indent: 0px; text-transform: none; widows: 2; word-spacing: 0px; -webkit-text-stroke-width: 0px; background-color: rgb(251, 251, 251); text-decoration-thickness: initial; text-decoration-style: initial; text-decoration-color: initial; float: none; display: inline !important;&quot;&gt;Load()&lt;/span&gt;" style="text;strokeColor=none;fillColor=none;align=left;verticalAlign=middle;spacingLeft=4;spacingRight=4;overflow=hidden;points=[[0,0.5],[1,0.5]];portConstraint=eastwest;rotatable=0;whiteSpace=wrap;html=1;" parent="lxQkOtMBkfPTH1jWham--23" vertex="1">
                    <mxGeometry y="30" width="140" height="30" as="geometry"/>
                </mxCell>
                <mxCell id="lxQkOtMBkfPTH1jWham--30" value="Handler*" style="swimlane;fontStyle=0;childLayout=stackLayout;horizontal=1;startSize=30;horizontalStack=0;resizeParent=1;resizeParentMax=0;resizeLast=0;collapsible=1;marginBottom=0;whiteSpace=wrap;html=1;" parent="1" vertex="1">
                    <mxGeometry x="320" y="280" width="140" height="150" as="geometry"/>
                </mxCell>
                <mxCell id="lxQkOtMBkfPTH1jWham--31" value="Create" style="text;strokeColor=none;fillColor=none;align=left;verticalAlign=middle;spacingLeft=4;spacingRight=4;overflow=hidden;points=[[0,0.5],[1,0.5]];portConstraint=eastwest;rotatable=0;whiteSpace=wrap;html=1;" parent="lxQkOtMBkfPTH1jWham--30" vertex="1">
                    <mxGeometry y="30" width="140" height="30" as="geometry"/>
                </mxCell>
                <mxCell id="lxQkOtMBkfPTH1jWham--32" value="&lt;span style=&quot;color: rgb(0, 0, 0); font-family: Helvetica; font-size: 12px; font-style: normal; font-variant-ligatures: normal; font-variant-caps: normal; font-weight: 400; letter-spacing: normal; orphans: 2; text-align: left; text-indent: 0px; text-transform: none; widows: 2; word-spacing: 0px; -webkit-text-stroke-width: 0px; background-color: rgb(251, 251, 251); text-decoration-thickness: initial; text-decoration-style: initial; text-decoration-color: initial; float: none; display: inline !important;&quot;&gt;Delete&lt;/span&gt;" style="text;strokeColor=none;fillColor=none;align=left;verticalAlign=middle;spacingLeft=4;spacingRight=4;overflow=hidden;points=[[0,0.5],[1,0.5]];portConstraint=eastwest;rotatable=0;whiteSpace=wrap;html=1;" parent="lxQkOtMBkfPTH1jWham--30" vertex="1">
                    <mxGeometry y="60" width="140" height="30" as="geometry"/>
                </mxCell>
                <mxCell id="lxQkOtMBkfPTH1jWham--33" value="&lt;span style=&quot;color: rgb(0, 0, 0); font-family: Helvetica; font-size: 12px; font-style: normal; font-variant-ligatures: normal; font-variant-caps: normal; font-weight: 400; letter-spacing: normal; orphans: 2; text-align: left; text-indent: 0px; text-transform: none; widows: 2; word-spacing: 0px; -webkit-text-stroke-width: 0px; background-color: rgb(251, 251, 251); text-decoration-thickness: initial; text-decoration-style: initial; text-decoration-color: initial; float: none; display: inline !important;&quot;&gt;Update&lt;/span&gt;" style="text;strokeColor=none;fillColor=none;align=left;verticalAlign=middle;spacingLeft=4;spacingRight=4;overflow=hidden;points=[[0,0.5],[1,0.5]];portConstraint=eastwest;rotatable=0;whiteSpace=wrap;html=1;" parent="lxQkOtMBkfPTH1jWham--30" vertex="1">
                    <mxGeometry y="90" width="140" height="30" as="geometry"/>
                </mxCell>
                <mxCell id="lxQkOtMBkfPTH1jWham--34" value="&lt;span style=&quot;color: rgb(0, 0, 0); font-family: Helvetica; font-size: 12px; font-style: normal; font-variant-ligatures: normal; font-variant-caps: normal; font-weight: 400; letter-spacing: normal; orphans: 2; text-align: left; text-indent: 0px; text-transform: none; widows: 2; word-spacing: 0px; -webkit-text-stroke-width: 0px; background-color: rgb(251, 251, 251); text-decoration-thickness: initial; text-decoration-style: initial; text-decoration-color: initial; float: none; display: inline !important;&quot;&gt;Connect&lt;/span&gt;" style="text;strokeColor=none;fillColor=none;align=left;verticalAlign=middle;spacingLeft=4;spacingRight=4;overflow=hidden;points=[[0,0.5],[1,0.5]];portConstraint=eastwest;rotatable=0;whiteSpace=wrap;html=1;" parent="lxQkOtMBkfPTH1jWham--30" vertex="1">
                    <mxGeometry y="120" width="140" height="30" as="geometry"/>
                </mxCell>
                <mxCell id="lxQkOtMBkfPTH1jWham--41" style="edgeStyle=orthogonalEdgeStyle;rounded=0;html=1;endArrow=block;endFill=0;" parent="1" source="lxQkOtMBkfPTH1jWham--36" target="lxQkOtMBkfPTH1jWham--34" edge="1">
                    <mxGeometry relative="1" as="geometry">
                        <Array as="points">
                            <mxPoint x="52" y="490"/>
                            <mxPoint x="390" y="490"/>
                        </Array>
                    </mxGeometry>
                </mxCell>
                <mxCell id="lxQkOtMBkfPTH1jWham--36" value="PodHandler" style="swimlane;fontStyle=0;childLayout=stackLayout;horizontal=1;startSize=30;horizontalStack=0;resizeParent=1;resizeParentMax=0;resizeLast=0;collapsible=1;marginBottom=0;whiteSpace=wrap;html=1;" parent="1" vertex="1" collapsed="1">
                    <mxGeometry x="-4" y="535" width="100" height="30" as="geometry">
                        <mxRectangle x="130" y="530" width="140" height="60" as="alternateBounds"/>
                    </mxGeometry>
                </mxCell>
                <mxCell id="lxQkOtMBkfPTH1jWham--47" style="edgeStyle=orthogonalEdgeStyle;rounded=0;html=1;endArrow=block;endFill=0;" parent="1" source="lxQkOtMBkfPTH1jWham--42" target="lxQkOtMBkfPTH1jWham--30" edge="1">
                    <mxGeometry relative="1" as="geometry">
                        <Array as="points">
                            <mxPoint x="-89" y="490"/>
                            <mxPoint x="390" y="490"/>
                        </Array>
                    </mxGeometry>
                </mxCell>
                <mxCell id="lxQkOtMBkfPTH1jWham--42" value="NamespaceHandler" style="swimlane;fontStyle=0;childLayout=stackLayout;horizontal=1;startSize=30;horizontalStack=0;resizeParent=1;resizeParentMax=0;resizeLast=0;collapsible=1;marginBottom=0;whiteSpace=wrap;html=1;" parent="1" vertex="1" collapsed="1">
                    <mxGeometry x="-164" y="535" width="150" height="30" as="geometry">
                        <mxRectangle x="-30" y="530" width="140" height="60" as="alternateBounds"/>
                    </mxGeometry>
                </mxCell>
                <mxCell id="lxQkOtMBkfPTH1jWham--53" style="edgeStyle=orthogonalEdgeStyle;rounded=0;html=1;endArrow=block;endFill=0;" parent="1" source="lxQkOtMBkfPTH1jWham--48" target="lxQkOtMBkfPTH1jWham--30" edge="1">
                    <mxGeometry relative="1" as="geometry">
                        <Array as="points">
                            <mxPoint x="177" y="490"/>
                            <mxPoint x="390" y="490"/>
                        </Array>
                    </mxGeometry>
                </mxCell>
                <mxCell id="lxQkOtMBkfPTH1jWham--48" value="DeploymentHandler" style="swimlane;fontStyle=0;childLayout=stackLayout;horizontal=1;startSize=30;horizontalStack=0;resizeParent=1;resizeParentMax=0;resizeLast=0;collapsible=1;marginBottom=0;whiteSpace=wrap;html=1;" parent="1" vertex="1" collapsed="1">
                    <mxGeometry x="106" y="535" width="150" height="30" as="geometry">
                        <mxRectangle x="295" y="530" width="140" height="60" as="alternateBounds"/>
                    </mxGeometry>
                </mxCell>
                <mxCell id="lxQkOtMBkfPTH1jWham--59" style="edgeStyle=orthogonalEdgeStyle;rounded=0;html=1;endArrow=block;endFill=0;" parent="1" source="lxQkOtMBkfPTH1jWham--54" target="lxQkOtMBkfPTH1jWham--30" edge="1">
                    <mxGeometry relative="1" as="geometry">
                        <Array as="points">
                            <mxPoint x="326" y="490"/>
                            <mxPoint x="390" y="490"/>
                        </Array>
                    </mxGeometry>
                </mxCell>
                <mxCell id="lxQkOtMBkfPTH1jWham--54" value="JobHandler" style="swimlane;fontStyle=0;childLayout=stackLayout;horizontal=1;startSize=30;horizontalStack=0;resizeParent=1;resizeParentMax=0;resizeLast=0;collapsible=1;marginBottom=0;whiteSpace=wrap;html=1;" parent="1" vertex="1" collapsed="1">
                    <mxGeometry x="266" y="535" width="100" height="30" as="geometry">
                        <mxRectangle x="460" y="530" width="140" height="60" as="alternateBounds"/>
                    </mxGeometry>
                </mxCell>
                <mxCell id="lxQkOtMBkfPTH1jWham--65" style="edgeStyle=orthogonalEdgeStyle;rounded=0;html=1;endArrow=block;endFill=0;" parent="1" source="lxQkOtMBkfPTH1jWham--60" target="lxQkOtMBkfPTH1jWham--30" edge="1">
                    <mxGeometry relative="1" as="geometry">
                        <Array as="points">
                            <mxPoint x="430" y="490"/>
                            <mxPoint x="390" y="490"/>
                        </Array>
                    </mxGeometry>
                </mxCell>
                <mxCell id="lxQkOtMBkfPTH1jWham--60" value="JobHandler" style="swimlane;fontStyle=0;childLayout=stackLayout;horizontal=1;startSize=30;horizontalStack=0;resizeParent=1;resizeParentMax=0;resizeLast=0;collapsible=1;marginBottom=0;whiteSpace=wrap;html=1;" parent="1" vertex="1" collapsed="1">
                    <mxGeometry x="376" y="535" width="100" height="30" as="geometry">
                        <mxRectangle x="630" y="530" width="140" height="60" as="alternateBounds"/>
                    </mxGeometry>
                </mxCell>
                <mxCell id="lxQkOtMBkfPTH1jWham--71" style="edgeStyle=orthogonalEdgeStyle;rounded=0;html=1;endArrow=block;endFill=0;" parent="1" source="lxQkOtMBkfPTH1jWham--66" target="lxQkOtMBkfPTH1jWham--30" edge="1">
                    <mxGeometry relative="1" as="geometry">
                        <Array as="points">
                            <mxPoint x="557" y="490"/>
                            <mxPoint x="390" y="490"/>
                        </Array>
                    </mxGeometry>
                </mxCell>
                <mxCell id="lxQkOtMBkfPTH1jWham--66" value="CronJobHandler" style="swimlane;fontStyle=0;childLayout=stackLayout;horizontal=1;startSize=30;horizontalStack=0;resizeParent=1;resizeParentMax=0;resizeLast=0;collapsible=1;marginBottom=0;whiteSpace=wrap;html=1;" parent="1" vertex="1" collapsed="1">
                    <mxGeometry x="486" y="535" width="130" height="30" as="geometry">
                        <mxRectangle x="800" y="530" width="140" height="60" as="alternateBounds"/>
                    </mxGeometry>
                </mxCell>
                <mxCell id="lxQkOtMBkfPTH1jWham--87" style="edgeStyle=orthogonalEdgeStyle;rounded=0;html=1;endArrow=block;endFill=0;" parent="1" source="lxQkOtMBkfPTH1jWham--73" target="lxQkOtMBkfPTH1jWham--30" edge="1">
                    <mxGeometry relative="1" as="geometry">
                        <Array as="points">
                            <mxPoint x="-234" y="490"/>
                            <mxPoint x="390" y="490"/>
                        </Array>
                    </mxGeometry>
                </mxCell>
                <mxCell id="lxQkOtMBkfPTH1jWham--73" value="ReplicaSetHandler" style="swimlane;fontStyle=0;childLayout=stackLayout;horizontal=1;startSize=30;horizontalStack=0;resizeParent=1;resizeParentMax=0;resizeLast=0;collapsible=1;marginBottom=0;whiteSpace=wrap;html=1;" parent="1" vertex="1" collapsed="1">
                    <mxGeometry x="-314" y="535" width="140" height="30" as="geometry">
                        <mxRectangle x="-200" y="530" width="140" height="60" as="alternateBounds"/>
                    </mxGeometry>
                </mxCell>
                <mxCell id="lxQkOtMBkfPTH1jWham--85" style="edgeStyle=orthogonalEdgeStyle;rounded=0;html=1;endArrow=block;endFill=0;" parent="1" source="lxQkOtMBkfPTH1jWham--78" target="lxQkOtMBkfPTH1jWham--30" edge="1">
                    <mxGeometry relative="1" as="geometry">
                        <mxPoint x="390" y="420" as="targetPoint"/>
                        <Array as="points">
                            <mxPoint x="701" y="490"/>
                            <mxPoint x="390" y="490"/>
                        </Array>
                    </mxGeometry>
                </mxCell>
                <mxCell id="lxQkOtMBkfPTH1jWham--78" value="DaemonSetHandler" style="swimlane;fontStyle=0;childLayout=stackLayout;horizontal=1;startSize=30;horizontalStack=0;resizeParent=1;resizeParentMax=0;resizeLast=0;collapsible=1;marginBottom=0;whiteSpace=wrap;html=1;" parent="1" vertex="1" collapsed="1">
                    <mxGeometry x="626" y="535" width="150" height="30" as="geometry">
                        <mxRectangle x="960" y="530" width="140" height="60" as="alternateBounds"/>
                    </mxGeometry>
                </mxCell>
                <mxCell id="lxQkOtMBkfPTH1jWham--86" style="edgeStyle=orthogonalEdgeStyle;rounded=0;html=1;endArrow=block;endFill=0;" parent="1" source="lxQkOtMBkfPTH1jWham--83" target="lxQkOtMBkfPTH1jWham--30" edge="1">
                    <mxGeometry relative="1" as="geometry">
                        <Array as="points">
                            <mxPoint x="881" y="490"/>
                            <mxPoint x="390" y="490"/>
                        </Array>
                    </mxGeometry>
                </mxCell>
                <mxCell id="lxQkOtMBkfPTH1jWham--83" value="PersistentVolumeHandler" style="swimlane;fontStyle=0;childLayout=stackLayout;horizontal=1;startSize=30;horizontalStack=0;resizeParent=1;resizeParentMax=0;resizeLast=0;collapsible=1;marginBottom=0;whiteSpace=wrap;html=1;" parent="1" vertex="1" collapsed="1">
                    <mxGeometry x="786" y="535" width="180" height="30" as="geometry">
                        <mxRectangle x="1120" y="530" width="140" height="60" as="alternateBounds"/>
                    </mxGeometry>
                </mxCell>
                <mxCell id="lxQkOtMBkfPTH1jWham--92" style="edgeStyle=orthogonalEdgeStyle;rounded=0;html=1;endArrow=block;endFill=0;" parent="1" source="lxQkOtMBkfPTH1jWham--88" target="lxQkOtMBkfPTH1jWham--30" edge="1">
                    <mxGeometry relative="1" as="geometry">
                        <Array as="points">
                            <mxPoint x="1036" y="490"/>
                            <mxPoint x="390" y="490"/>
                        </Array>
                    </mxGeometry>
                </mxCell>
                <mxCell id="lxQkOtMBkfPTH1jWham--88" value="ServiceHandler" style="swimlane;fontStyle=0;childLayout=stackLayout;horizontal=1;startSize=30;horizontalStack=0;resizeParent=1;resizeParentMax=0;resizeLast=0;collapsible=1;marginBottom=0;whiteSpace=wrap;html=1;" parent="1" vertex="1" collapsed="1">
                    <mxGeometry x="976" y="535" width="120" height="30" as="geometry">
                        <mxRectangle x="1280" y="530" width="140" height="60" as="alternateBounds"/>
                    </mxGeometry>
                </mxCell>
                <mxCell id="lxQkOtMBkfPTH1jWham--94" style="edgeStyle=orthogonalEdgeStyle;rounded=0;html=1;endArrow=block;endFill=0;" parent="1" source="lxQkOtMBkfPTH1jWham--89" target="lxQkOtMBkfPTH1jWham--30" edge="1">
                    <mxGeometry relative="1" as="geometry">
                        <Array as="points">
                            <mxPoint x="1172" y="490"/>
                            <mxPoint x="390" y="490"/>
                        </Array>
                    </mxGeometry>
                </mxCell>
                <mxCell id="lxQkOtMBkfPTH1jWham--89" value="IngressHandler" style="swimlane;fontStyle=0;childLayout=stackLayout;horizontal=1;startSize=30;horizontalStack=0;resizeParent=1;resizeParentMax=0;resizeLast=0;collapsible=1;marginBottom=0;whiteSpace=wrap;html=1;" parent="1" vertex="1" collapsed="1">
                    <mxGeometry x="1106" y="535" width="120" height="30" as="geometry">
                        <mxRectangle x="1450" y="530" width="140" height="60" as="alternateBounds"/>
                    </mxGeometry>
                </mxCell>
                <mxCell id="lxQkOtMBkfPTH1jWham--91" style="edgeStyle=orthogonalEdgeStyle;rounded=0;html=1;endArrow=block;endFill=0;" parent="1" source="lxQkOtMBkfPTH1jWham--90" target="lxQkOtMBkfPTH1jWham--30" edge="1">
                    <mxGeometry relative="1" as="geometry">
                        <Array as="points">
                            <mxPoint x="-387" y="490"/>
                            <mxPoint x="390" y="490"/>
                        </Array>
                    </mxGeometry>
                </mxCell>
                <mxCell id="lxQkOtMBkfPTH1jWham--90" value="StatefulSetHandler" style="swimlane;fontStyle=0;childLayout=stackLayout;horizontal=1;startSize=30;horizontalStack=0;resizeParent=1;resizeParentMax=0;resizeLast=0;collapsible=1;marginBottom=0;whiteSpace=wrap;html=1;" parent="1" vertex="1" collapsed="1">
                    <mxGeometry x="-464" y="535" width="140" height="30" as="geometry">
                        <mxRectangle x="-360" y="530" width="140" height="60" as="alternateBounds"/>
                    </mxGeometry>
                </mxCell>
                <mxCell id="lxQkOtMBkfPTH1jWham--95" value="HealthCheck" style="swimlane;fontStyle=0;childLayout=stackLayout;horizontal=1;startSize=30;horizontalStack=0;resizeParent=1;resizeParentMax=0;resizeLast=0;collapsible=1;marginBottom=0;whiteSpace=wrap;html=1;" parent="1" vertex="1">
                    <mxGeometry x="-210" y="325" width="140" height="60" as="geometry">
                        <mxRectangle x="-210" y="325" width="110" height="30" as="alternateBounds"/>
                    </mxGeometry>
                </mxCell>
                <mxCell id="lxQkOtMBkfPTH1jWham--102" value="&lt;span style=&quot;color: rgb(0, 0, 0); font-family: Helvetica; font-size: 12px; font-style: normal; font-variant-ligatures: normal; font-variant-caps: normal; font-weight: 400; letter-spacing: normal; orphans: 2; text-align: left; text-indent: 0px; text-transform: none; widows: 2; word-spacing: 0px; -webkit-text-stroke-width: 0px; background-color: rgb(251, 251, 251); text-decoration-thickness: initial; text-decoration-style: initial; text-decoration-color: initial; float: none; display: inline !important;&quot;&gt;Register(name, handler)&lt;/span&gt;" style="text;strokeColor=none;fillColor=none;align=left;verticalAlign=middle;spacingLeft=4;spacingRight=4;overflow=hidden;points=[[0,0.5],[1,0.5]];portConstraint=eastwest;rotatable=0;whiteSpace=wrap;html=1;" parent="lxQkOtMBkfPTH1jWham--95" vertex="1">
                    <mxGeometry y="30" width="140" height="30" as="geometry"/>
                </mxCell>
                <mxCell id="lxQkOtMBkfPTH1jWham--97" value="SignalHandler" style="swimlane;fontStyle=0;childLayout=stackLayout;horizontal=1;startSize=30;horizontalStack=0;resizeParent=1;resizeParentMax=0;resizeLast=0;collapsible=1;marginBottom=0;whiteSpace=wrap;html=1;" parent="1" vertex="1" collapsed="1">
                    <mxGeometry x="60" y="80" width="120" height="30" as="geometry">
                        <mxRectangle x="-70" y="30" width="140" height="60" as="alternateBounds"/>
                    </mxGeometry>
                </mxCell>
            </root>
        </mxGraphModel>
    </diagram>
</mxfile>